<svg id="aiI0gFCZL8m-erUPxaWuBxw" xmlns="http://www.w3.org/2000/svg" width="19.573" height="19.571" viewBox="0 0 19.573 19.571">
  <path fill="#ffffff" id="Path_284" data-name="Path 284" d="M3.261,17.4a2.168,2.168,0,1,0,.171-.846,2.149,2.149,0,0,0-.171.846Zm10.874,0a2.168,2.168,0,1,0,.171-.846,2.15,2.15,0,0,0-.171.846Zm-7.016-5.14L19.154,8.817a.61.61,0,0,0,.417-.553V2.283H4.24V.435A.419.419,0,0,0,4.112.128.419.419,0,0,0,3.8,0H.435A.419.419,0,0,0,.128.128.419.419,0,0,0,0,.435V2.175H2.113l2.141,9.847.206,1.024v1.632a.436.436,0,0,0,.435.435H19.138a.436.436,0,0,0,.435-.435V13.047H7.343a2.47,2.47,0,0,1-.71-.081q-.24-.075-.265-.2t.167-.258a2,2,0,0,1,.585-.251Z" fill-rule="evenodd"/>
</svg>
