<?xml version="1.0" encoding="utf-8"?>
<!-- Svg Vector Icons : http://www.onlinewebfonts.com/icon -->
<!DOCTYPE svg PUBLIC "-//W3C//DTD SVG 1.1//EN" "http://www.w3.org/Graphics/SVG/1.1/DTD/svg11.dtd">
<svg version="1.1" xmlns="http://www.w3.org/2000/svg" xmlns:xlink="http://www.w3.org/1999/xlink" x="0px" y="0px" viewBox="0 0 1000 1000" enable-background="new 0 0 1000 1000" xml:space="preserve">
<metadata> Svg Vector Icons : http://www.onlinewebfonts.com/icon </metadata>
<g><g><g><path d="M411.2,170C216.5,170,58,313.8,58,490.5C58,595.6,114.8,694,210,753.9c3.5,105.6-32.1,199.8-33.6,203.8L163.7,990l257.2-179.3c189.4-4.7,343.3-148.2,343.3-320.2C764.3,313.8,605.9,170,411.2,170z M414.1,789.8l-208,144.9c11.7-39.3,28.1-109.8,24.6-187.4l-0.2-5.6l-4.8-2.9C133.9,683,79.1,590.2,79.1,490.5c0-165.1,149-299.5,332.1-299.5c183.1,0,332,134.4,332,299.5c0,162-146.2,296.3-325.8,299.3L414.1,789.8z"/><path d="M588.8,10C489.4,10,393.9,48.8,327,116.5l-3.2,3.3l4.4,1.3c5,1.5,10.2,3.5,15.4,6.1l1.7,0.8l1.4-1.3C410.1,65,496.2,31.1,588.8,31.1c183.1,0,332,134.3,332,299.4c0,87.9-43.6,171.4-119.7,228.9l-1.6,1.1l0.6,1.9c1.7,5,2.9,10.3,3.8,15.7l0.7,4.4l3.6-2.6C893.2,518.3,942,427.4,942,330.5C941.9,153.7,783.5,10,588.8,10z"/></g></g><g></g><g></g><g></g><g></g><g></g><g></g><g></g><g></g><g></g><g></g><g></g><g></g><g></g><g></g><g></g></g>
</svg>