<svg xmlns="http://www.w3.org/2000/svg" width="59.938" height="59.849" viewBox="0 0 59.938 59.849">
  <g id="_2fVuMCSPHE9-fBYZJNoozqJ" data-name="2fVuMCSPHE9-fBYZJNoozqJ" transform="translate(0 -0.094)">
    <g id="hUE3TnW67L4-bLq7XwOkbES" transform="translate(32.307 0.094)">
      <path id="Path_54" data-name="Path 54" d="M.339.647Q.322.812.3.989T.271,1.34Q.255,1.515.239,1.7T.208,2.05Q.193,2.225.179,2.4t-.027.343q-.026.335-.047.646Q.063,4.016.046,4.405q-.008.194-.008.3a.373.373,0,0,0,.008.119.422.422,0,0,0,.12.04q.106.027.281.061l.187.035L.847,5l.231.037.245.036.263.039.281.046.292.052.293.055q.293.056.556.113t.459.105l.357.089q.17.041.3.068t.207.039q.079.012.087,0s.023-.071.06-.2l.063-.222.081-.286q.187-.666.428-1.539l.116-.42.029-.1.028-.1.056-.2.105-.386.095-.35.081-.3.063-.24q.056-.215.06-.247T5.574.992A2.593,2.593,0,0,0,5.256.876Q5.054.814,4.77.741T4.154.6q-.336-.074-.7-.147T2.705.311L2.328.247,1.954.189,1.59.138Q1.409.113,1.241.094L.4,0,.339.647Z" fill="#F6891A" fill-rule="evenodd"/>
    </g>
    <g id="_4PkJ64pax1J-esdswBRTrcG" data-name="4PkJ64pax1J-esdswBRTrcG" transform="translate(21.787)">
      <path id="Path_56" data-name="Path 56" d="M3.139.4q-.236.043-.5.095T2.131.6q-.523.11-.981.218Q.92.872.73.92t-.34.091q-.15.043-.236.075a.333.333,0,0,0-.107.052.379.379,0,0,0,.016.133q.024.118.077.336t.126.5q.073.282.164.62t.191.7q.1.369.206.74l.106.372.105.366.1.356.1.34a.24.24,0,0,0,.11.153.316.316,0,0,0,.206.012q.194-.045.443-.1l.515-.109q.546-.113,1.1-.219l.514-.1q.248-.045.442-.077t.334-.051a1.706,1.706,0,0,1,.19-.019h.12l.1-.005a.842.842,0,0,0,.09-.012.425.425,0,0,0,.076-.021A.25.25,0,0,0,5.6,4.968.423.423,0,0,0,5.664,4.8a1.518,1.518,0,0,0,.024-.273q0-.082,0-.185t-.01-.222q-.007-.116-.018-.263-.005-.069-.012-.148t-.013-.159l-.015-.171-.008-.09L5.6,3.2l-.009-.1,0-.025,0-.025,0-.05,0-.025V2.951l0-.052V2.873l0-.026,0-.054-.011-.129V2.51l0-.03V2.45l0-.03V2.3l-.01-.112L5.5,2.083l-.018-.2-.017-.19L5.45,1.514q-.008-.086-.016-.161T5.42,1.2Q5.4,1.06,5.391.946T5.362.735A2.509,2.509,0,0,0,5.3.433a.561.561,0,0,0-.074-.17.2.2,0,0,0-.1-.075.276.276,0,0,0-.06-.013A.6.6,0,0,0,5,.17H4.96l-.042,0H4.826q-.085,0-.265.019T4.154.244q-.228.031-.493.071T3.139.4Z" fill="#F6891A" fill-rule="evenodd"/>
    </g>
    <g id="_4GuXweYVc7c-eDN7Vn8eMmU" data-name="4GuXweYVc7c-eDN7Vn8eMmU" transform="translate(41.139 3.099)">
      <path id="Path_58" data-name="Path 58" d="M1.042,2.2q-.111.224-.216.443t-.2.414q-.187.4-.324.707t-.2.483q-.067.179-.045.183a1.535,1.535,0,0,1,.18.083q.121.062.3.165T.935,4.9q.212.123.446.264t.464.281q.235.144.446.277t.392.251q.183.119.3.2.151.107.288.2t.25.164q.114.073.186.112a.3.3,0,0,0,.1.041.813.813,0,0,0,.153-.16q.063-.074.15-.181L4.3,6.115l.219-.278.241-.311q.252-.327.519-.68L5.538,4.5l.253-.34.236-.321.211-.292q.1-.14.178-.252t.138-.2a.932.932,0,0,0,.122-.214q0-.028-.077-.106a2.912,2.912,0,0,0-.229-.193q-.146-.113-.353-.261t-.45-.31q-.5-.337-1.077-.7Q4.2,1.129,3.919.961L3.636.794,3.361.635,3.13.507,2.913.387l-.372-.2Q2.379.1,2.284.051A.759.759,0,0,0,2.179,0a1.031,1.031,0,0,0-.1.172l-.107.2L1.83.644,1.663.969l-.19.373-.209.412L1.042,2.2Z" fill="#F6891A" fill-rule="evenodd"/>
    </g>
    <g id="d02WgcIpU02-fBw5cMOLZJO" transform="translate(11.971 3.24)">
      <path id="Path_60" data-name="Path 60" d="M3.139.7,2.909.84,2.668.985q-.242.147-.5.31t-.5.322q-.249.161-.479.316t-.428.292q-.2.14-.35.251t-.245.192a.577.577,0,0,0-.114.115q-.009.011.089.163.046.072.115.174L.4,3.343l.185.264.21.3q.22.309.47.652t.493.673L2,5.55l.225.3.2.269.178.23q.083.106.145.181t.105.124.106-.044q.091-.049.257-.151l.174-.108.2-.125.217-.139.231-.15.247-.163.261-.169q.267-.171.534-.338t.5-.305L5.8,4.836l.185-.106L6.77,4.3l-1.1-2.124-.111-.217-.11-.211-.107-.2-.1-.2q-.1-.187-.2-.364T4.865.66Q4.784.516,4.715.4T4.6.194A1.007,1.007,0,0,0,4.474.012a.416.416,0,0,0-.137.047q-.114.05-.3.145T3.627.426L3.39.559,3.139.7Z" fill="#F6891A" fill-rule="evenodd"/>
    </g>
    <g id="jKTkwKKQsjW-f0p3H7jIHq3" transform="translate(48.46 9.79)">
      <path id="Path_62" data-name="Path 62" d="M2.846.622,2.7.767,2.511.941l-.441.412L1.581,1.8l-.245.224L1.1,2.242,0,3.251l.761.9q.157.184.344.417t.368.473q.092.122.179.24t.167.232q.081.115.15.217t.128.194q.122.181.229.334t.2.277q.094.123.153.188t.085.07A1.019,1.019,0,0,0,2.95,6.7l.193-.112.247-.146.29-.174L4,6.074l.7-.431L5.414,5.2l.331-.208.3-.192.263-.168.213-.139q.193-.128.236-.164a.082.082,0,0,0,.021-.068.467.467,0,0,0-.022-.12,1.453,1.453,0,0,0-.151-.329q-.057-.1-.134-.217t-.166-.25q-.089-.131-.192-.277t-.214-.3q-.11-.151-.23-.311T5.43,2.143q-.244-.319-.494-.632T4.462.928Q4.231.651,4.049.447q-.094-.1-.171-.186T3.738.121Q3.611,0,3.573,0a.24.24,0,0,0-.084.049Q3.425.1,3.324.183T3.1.381Q2.976.5,2.846.622Z" fill="#F6891A" fill-rule="evenodd"/>
    </g>
    <g id="RIj40P9QKx-b6n92GvFqlw" transform="translate(4.568 9.931)">
      <path id="Path_64" data-name="Path 64" d="M2.542.716Q2.48.785,2.4.877t-.162.2L2.059,1.3l-.2.253-.207.271-.212.282q-.213.285-.424.575T.628,3.23Q.441,3.494.3,3.7t-.221.341A.581.581,0,0,0,0,4.2a.729.729,0,0,0,.17.138q.08.057.2.135l.254.17.3.2.336.218.361.231.373.237q.381.241.74.464l.344.212.311.19.267.16.212.123a1.117,1.117,0,0,0,.212.107A.327.327,0,0,0,4.16,6.7q.066-.076.165-.207t.222-.3l.125-.179q.066-.1.13-.193.275-.4.653-.905l.18-.236q.091-.118.175-.224t.165-.205q.081-.1.15-.179l.017-.021L6.16,4.03l.033-.041.066-.081.064-.078.061-.075.113-.14.1-.124.082-.1.062-.081a.4.4,0,0,0,.053-.079,1.031,1.031,0,0,0-.135-.142L6.5,2.936l-.2-.19L6.06,2.522l-.27-.249L5.195,1.73l-.608-.55L4.3.923,4.036.688,3.8.483,3.612.316Q3.436.164,3.385.128A.346.346,0,0,0,3.322.09.17.17,0,0,0,3.259.075a.259.259,0,0,0-.15.057,1.634,1.634,0,0,0-.222.2Q2.82.4,2.732.5l-.09.1-.1.114Z" fill="#F6891A" fill-rule="evenodd"/>
    </g>
    <g id="_2Tg7tcUVKUv-czuoPVwdgYi" data-name="2Tg7tcUVKUv-czuoPVwdgYi" transform="translate(19.094 12.488)">
      <path id="Path_66" data-name="Path 66" d="M8.434,2.524V5.048H7.942a4.69,4.69,0,0,0-.566.04,5.9,5.9,0,0,0-.592.109,7.371,7.371,0,0,0-1.211.4,8.015,8.015,0,0,0-1.163.614q-.279.178-.532.373T3.4,7a9.7,9.7,0,0,0-.69.718,7.006,7.006,0,0,0-.547.723,6.661,6.661,0,0,0-.435.771q-.1.2-.185.417t-.169.446a7.623,7.623,0,0,0-.216.753,7.464,7.464,0,0,0-.134.755,7.381,7.381,0,0,0,.767,4.3,7.5,7.5,0,0,0,.8,1.232,7.586,7.586,0,0,0,1.035,1.068q.288.245.6.461t.653.405q.342.189.7.345t.75.281q.1.032.212.056t.256.047q.144.022.323.039t.413.032q.231.015.526.028t.662.024l.389.011.432.011.478.011.257.005.269.005.093,0,.091,0,.178,0,.173,0,.168,0,.162,0,.157,0,.3.007.28.008.262.008L12.65,20l.227.009q.223.01.407.022t.349.027q.322.029.549.073a2.332,2.332,0,0,1,.393.107,1.315,1.315,0,0,1,.41.246q.056.049.115.11t.114.126l.059.069.061.074a2.533,2.533,0,0,1,.519,1.058,2.575,2.575,0,0,1,.063.568,2.607,2.607,0,0,1-.061.563,2.578,2.578,0,0,1-.181.534,2.49,2.49,0,0,1-.295.482,2.4,2.4,0,0,1-.911.715q-.044.02-.083.035t-.093.031q-.052.015-.111.028t-.137.024q-.155.023-.382.039t-.582.028q-.347.011-.845.019l-.542.006-.632,0-.352,0H.937v4.93h7.5V34.98h4.92V29.932h.5a5.112,5.112,0,0,0,.891-.085,6.2,6.2,0,0,0,.9-.238,7.248,7.248,0,0,0,.89-.375,8,8,0,0,0,.855-.5,8.285,8.285,0,0,0,.8-.6,8.056,8.056,0,0,0,.718-.7,7.4,7.4,0,0,0,.616-.774q.14-.2.263-.411t.229-.425a8.355,8.355,0,0,0,.456-1.132,7.7,7.7,0,0,0,.272-1.142,7.053,7.053,0,0,0-.715-4.4,7.57,7.57,0,0,0-.618-.99,8.192,8.192,0,0,0-.789-.92q-.131-.131-.244-.24t-.228-.211q-.224-.2-.434-.356a5.29,5.29,0,0,0-.449-.3q-.117-.07-.247-.14t-.271-.14l-.138-.066-.134-.063q-.136-.063-.257-.115t-.248-.1q-.125-.049-.245-.09-.248-.086-.5-.146t-.552-.106q-.293-.044-.647-.072-.176-.014-.373-.025t-.413-.019q-.214-.008-.459-.013l-.51-.009-.276,0-.29,0H10.192l-.263,0-.247,0-.232,0L9.03,15q-.2-.006-.368-.015t-.321-.021q-.3-.024-.519-.062a2.669,2.669,0,0,1-.391-.095,1.669,1.669,0,0,1-.3-.135Q7.061,14.64,7,14.594t-.125-.1q-.059-.049-.124-.11l-.063-.06-.065-.064a2.611,2.611,0,0,1-.214-.243,2.541,2.541,0,0,1-.177-.26,2.517,2.517,0,0,1-.349-1.141,2.549,2.549,0,0,1,.2-1.147,2.46,2.46,0,0,1,.293-.51,2.422,2.422,0,0,1,.669-.612,2.51,2.51,0,0,1,.282-.15q.044-.02.083-.035t.093-.031q.052-.015.111-.028t.137-.024q.155-.023.383-.039t.583-.028Q9.059,10,9.557,10l.543-.006.633,0,.353,0h9.766V5.048h-7.5V0H8.434V2.524Z" fill="#F6891A" fill-rule="evenodd"/>
    </g>
    <g id="_23Tnmt2Eu85-bBhyRUwPpLm" data-name="23Tnmt2Eu85-bBhyRUwPpLm" transform="translate(53.31 19.133)">
      <path id="Path_68" data-name="Path 68" d="M2.249.845,0,1.725l.234.6q.047.121.122.351t.158.514Q.6,3.481.687,3.8q.044.159.086.316t.082.313q.039.15.079.3t.077.284q.037.134.073.261t.066.231q.063.214.106.346A.89.89,0,0,0,1.312,6a.85.85,0,0,0,.22-.016l.236-.033.3-.047.355-.058.395-.067q.411-.071.857-.151t.859-.158l.4-.076.358-.07L5.6,5.26l.24-.053a1.1,1.1,0,0,0,.232-.066q.023-.021-.018-.245-.019-.1-.053-.252t-.076-.321q-.043-.173-.1-.376t-.112-.418q-.119-.433-.257-.906t-.273-.911q-.069-.222-.133-.423T4.925.905Q4.864.722,4.811.575T4.713.31Q4.668.194,4.635.126A.356.356,0,0,0,4.58.035a.583.583,0,0,0-.21.044q-.185.055-.508.167T3.13.51L2.7.671,2.249.845Z" fill="#F6891A" fill-rule="evenodd"/>
    </g>
    <g id="l7nBUVbUU44-dIiGhFBwi3S" transform="translate(0.503 19.297)">
      <path id="Path_70" data-name="Path 70" d="M1.359.317q-.053.139-.11.3T1.136.95q-.056.171-.115.359t-.115.378q-.056.19-.113.389T.685,2.47q-.107.393-.2.775t-.167.712q-.075.338-.12.592t-.059.417q-.012.161.015.187a1.017,1.017,0,0,0,.212.065q.188.047.5.114L1.2,5.4l.378.075.413.078.438.079.439.078.414.075.38.07.336.063q.312.06.5.1t.214.048q.026.009.07-.072a1.681,1.681,0,0,0,.1-.229q.055-.152.113-.354.03-.1.059-.214t.058-.234q.058-.243.133-.529.038-.145.078-.291t.082-.3q.043-.152.084-.294t.084-.282q.043-.139.082-.26t.077-.23q.071-.218.13-.408t.1-.339Q6,1.885,6.021,1.8t.011-.1a2.228,2.228,0,0,0-.209-.09L5.6,1.524l-.285-.112-.334-.13-.372-.144L3.805.83,3,.524,2.627.384,2.291.258,2.006.153,1.782.071A2.165,2.165,0,0,0,1.569,0q-.035,0-.1.092a1.233,1.233,0,0,0-.114.224Z" fill="#F6891A" fill-rule="evenodd"/>
    </g>
    <g id="krjozhe0q9R-fZ4gSBRG8m4" transform="translate(54.621 29.872)">
      <path id="Path_72" data-name="Path 72" d="M2.753.072.457.107.375,1.374q-.009.129-.02.273T.33,1.941q-.027.3-.059.613T.205,3.14Q.188,3.279.172,3.4t-.032.227q-.062.42-.1.713-.018.142-.026.221a.34.34,0,0,0,0,.087A1.224,1.224,0,0,0,.23,4.7l.239.049.307.06.362.068.4.074.873.157.873.152.4.068.362.059.307.048.239.035a1.025,1.025,0,0,0,.218.021.516.516,0,0,0,.041-.155q.024-.132.057-.368t.068-.53q.036-.3.074-.639t.074-.7q.037-.361.068-.7.016-.174.03-.337t.027-.319q.013-.156.023-.3t.018-.264A9.063,9.063,0,0,0,5.31.247.62.62,0,0,0,5.276.06Q5.253.008,5.212.012A1.9,1.9,0,0,1,4.973.03L4.735.039l-.3.008Q4.1.054,3.664.061L2.753.072Z" fill="#F6891A" fill-rule="evenodd"/>
    </g>
    <g id="eucA9HCscY2-dCc0mitqmXD" transform="translate(0 30.096)">
      <path id="Path_74" data-name="Path 74" d="M.07,1.08q.008.136.018.288t.023.31q.012.158.027.327t.03.339q.016.17.033.345t.035.345q.036.342.075.669t.075.606q.037.285.07.5t.06.347a.5.5,0,0,0,.045.152.564.564,0,0,0,.239,0q.1-.01.245-.029t.311-.045l.363-.058.4-.069q.416-.073.868-.159t.862-.171l.4-.083L4.6,4.614l.3-.071q.136-.034.23-.061.2-.057.2-.081t-.012-.136q-.005-.05-.014-.124L5.3,4.068l-.009-.08L5.275,3.9,5.27,3.856l-.006-.047-.006-.048-.006-.049-.006-.05-.006-.052L5.228,3.5l-.013-.109L5.2,3.283l-.013-.114q-.015-.112-.031-.244t-.032-.268q-.015-.136-.031-.284t-.03-.291q-.015-.143-.029-.289t-.026-.279q-.025-.269-.043-.492L4.9,0H0L.07,1.08Z" fill="#F6891A" fill-rule="evenodd"/>
    </g>
    <g id="liglxVvTqSP-ciNMidQtGIa" transform="translate(2.073 39.181)">
      <path id="Path_76" data-name="Path 76" d="M2.343.834,2.117.921l-.22.085-.213.083-.2.08-.195.077L1.1,1.32l-.333.133-.277.112-.213.087q-.183.076-.2.085T.1,1.87q.033.11.109.3t.18.433q.105.244.235.526t.271.58q.145.3.291.595.075.149.147.291t.145.281q.073.139.142.265t.136.245a8.455,8.455,0,0,0,.537.88.9.9,0,0,0,.166.179.126.126,0,0,0,.117.032q.034-.015.216-.122l.2-.12.252-.151.292-.176.322-.2.692-.423L4.9,5.077l.34-.21.32-.2.29-.181.25-.157L6.3,4.2q.179-.115.209-.141t.015-.074A.62.62,0,0,0,6.49,3.85a2.272,2.272,0,0,0-.2-.387q-.037-.058-.083-.139t-.1-.175q-.052-.094-.111-.2l-.121-.229q-.123-.236-.258-.507t-.262-.533q-.13-.269-.244-.512T4.91.72Q4.82.515,4.772.39A.692.692,0,0,1,4.721.223.264.264,0,0,0,4.692.11.235.235,0,0,0,4.628.023.74.74,0,0,0,4.42.072q-.189.058-.5.167L3.583.36,3.2.5,2.785.66,2.567.745,2.343.834Z" fill="#F6891A" fill-rule="evenodd"/>
    </g>
    <g id="_2x30zGJlyE4-cAuaDf47Lcu" data-name="2x30zGJlyE4-cAuaDf47Lcu" transform="translate(51.306 39.134)">
      <path id="Path_78" data-name="Path 78" d="M1.851.363q-.032.092-.1.244T1.607.944q-.084.185-.186.4t-.211.439q-.111.227-.223.45t-.222.434q-.112.214-.208.391T.375,3.38L0,3.99l.445.282q.39.251.761.486t.7.441q.674.419,1.182.719.254.149.455.262t.347.188q.3.152.324.122a.931.931,0,0,0,.089-.116q.053-.078.124-.2t.152-.263q.081-.144.175-.319t.192-.363q.1-.189.2-.4Q5.36,4.43,5.572,4t.395-.827q.093-.2.174-.379t.151-.34q.07-.161.122-.29T6.5,1.933q.071-.2.048-.22t-.212-.091l-.224-.089-.286-.113L5.49,1.29l-.373-.145L4.311.835,3.9.678,3.5.527,3.131.386,2.8.259,2.51.153,2.286.071A2.157,2.157,0,0,0,2.073,0q-.043,0-.107.107a1.429,1.429,0,0,0-.116.256Z" fill="#F6891A" fill-rule="evenodd"/>
    </g>
    <g id="iGwxv8NFFvz-goZdkRbl7UX" transform="translate(7.907 46.998)">
      <path id="Path_80" data-name="Path 80" d="M2.87.623,2.718.768,2.532.944l-.445.416-.493.455-.246.225-.236.215L0,3.287.7,4q.215.215.54.517t.73.662q.2.182.423.373t.454.395q.237.2.48.411t.5.423A.17.17,0,0,0,3.9,6.82a.135.135,0,0,0,.079-.008.4.4,0,0,0,.1-.066,1.525,1.525,0,0,0,.142-.138q.082-.088.194-.224t.258-.323l.157-.2.178-.234.2-.266.109-.145.115-.154q.294-.392.55-.737l.243-.328.213-.29.178-.244.136-.19a1.676,1.676,0,0,0,.121-.182q.009-.022-.081-.126T6.542,2.7q-.166-.163-.384-.362L5.929,2.13l-.247-.216q-.532-.459-.99-.878L4.482.842,4.3.672Q4.217.592,4.156.53t-.1-.107Q3.972.337,3.891.257T3.749.123Q3.684.065,3.641.033A.149.149,0,0,0,3.585,0,.231.231,0,0,0,3.5.049Q3.441.1,3.341.184q-.2.173-.471.439Z" fill="#F6891A" fill-rule="evenodd"/>
    </g>
    <g id="_7RCbZe0heLR-f4ivlryfFSR" data-name="7RCbZe0heLR-f4ivlryfFSR" transform="translate(45.121 47.022)">
      <path id="Path_82" data-name="Path 82" d="M2.2,1.044l-.234.222-.24.223-.24.218-.232.208q-.475.42-.718.607L0,2.945,1.464,4.894l.152.2.148.193.142.187.137.179.13.171.123.162.115.152.106.14.1.128.045.059.011.014,0,0v.009h0l.01.014.01.014.039.052.036.048,0,0,0,0,0,0h0l.008.011.016.022.03.04.124.163q.006.011.129-.085l.141-.113.183-.152.217-.185.245-.212q.258-.224.546-.479T5,5.127l.28-.253.265-.243L5.788,4.4,6,4.2l.181-.175q.082-.081.14-.141L6.993,3.2,5.248,1.619,4.895,1.3,4.562,1Q4.239.716,3.985.494t-.4-.349A1.345,1.345,0,0,0,3.409.011q-.017,0-.122.076t-.27.221q-.169.145-.375.331l-.214.2-.225.21Z" fill="#F6891A" fill-rule="evenodd"/>
    </g>
    <g id="_1hrOlgF59ov-dLFDHxOBIzT" data-name="1hrOlgF59ov-dLFDHxOBIzT" transform="translate(16.751 52.515)">
      <path id="Path_84" data-name="Path 84" d="M1.042,2.171l-.213.442-.2.413q-.187.4-.328.7T.09,4.213A.712.712,0,0,0,.023,4.4a.577.577,0,0,0,.1.065q.072.04.189.095t.265.12q.147.064.327.14l.377.155.413.165q.427.169.885.342t.877.325l.4.144.363.125q.173.058.31.1t.243.073q.215.059.237.04a2.1,2.1,0,0,0,.07-.211q.029-.094.069-.228l.086-.292.1-.344.111-.383q.115-.4.238-.832t.236-.835l.108-.387.1-.349.081-.3q.037-.137.063-.235.054-.209.054-.23t-.041-.053a.652.652,0,0,0-.111-.065,1.622,1.622,0,0,0-.164-.068q-.1-.034-.2-.06-.075-.019-.221-.068t-.337-.118q-.192-.07-.428-.159L4.333.885,3.8.677,3.262.459,2.735.241,2.485.136l-.236-.1q-.072-.026-.371.5-.152.268-.359.673t-.477.963Z" fill="#F6891A" fill-rule="evenodd"/>
    </g>
    <g id="_8AdR0FIVB9V-eMLe4MWKWgR" data-name="8AdR0FIVB9V-eMLe4MWKWgR" transform="translate(36.922 52.516)">
      <path id="Path_86" data-name="Path 86" d="M3.022.469,2.8.565l-.245.1q-.254.1-.53.21t-.53.2l-.245.086-.221.073-.39.132-.322.108L.1,1.545l-.087.027a1.473,1.473,0,0,0,.045.194q.048.185.138.513l.1.352.113.4.126.444.136.476.668,2.383,1.371-.481L3,5.754l.31-.112q.313-.115.632-.238t.586-.232q.277-.113.464-.2l.185-.088L5.36,4.8l.177-.081L5.7,4.646q.336-.151.458-.2l.045-.018a.253.253,0,0,0,.037-.02.112.112,0,0,0,.047-.058.217.217,0,0,0,0-.1,1.02,1.02,0,0,0-.05-.174q-.039-.107-.111-.27-.036-.08-.081-.179l-.1-.212-.12-.248-.068-.139L5.69,2.879l-.079-.16-.041-.084-.021-.043L5.539,2.57l-.011-.022-.044-.09,0-.006V2.447l0-.006,0-.006-.011-.023-.011-.023-.012-.023-.023-.047L5.391,2.27l-.006-.012,0,0,0,0,0-.006-.012-.025,0-.006,0-.006,0,0,0,0,0-.006-.012-.025q-.111-.223-.221-.437t-.21-.407Q4.706.934,4.541.638T4.269.176Q4.161.007,4.135.012a1.131,1.131,0,0,0-.121.041q-.1.038-.251.1L3.6.219,3.42.3,3.225.379l-.2.09Z" fill="#F6891A" fill-rule="evenodd"/>
    </g>
    <g id="_9KgSen7HIsn-eZuqVe3qH94" data-name="9KgSen7HIsn-eZuqVe3qH94" transform="translate(27.305 55.039)">
      <path id="Path_88" data-name="Path 88" d="M.4.469Q.385.57.371.7T.341.969q-.015.142-.031.306t-.032.333q-.016.17-.032.352t-.032.363q-.032.365-.061.728T.1,3.73Q.077,4.055.062,4.3t-.02.394a.6.6,0,0,0,0,.157.955.955,0,0,0,.247.026l.264.01L.9,4.892l.4.006.441,0q.458,0,.956,0T3.643,4.9l.441-.006.4-.008.338-.009.264-.011a.958.958,0,0,0,.247-.027.634.634,0,0,0,.016-.22q0-.2-.019-.536t-.05-.771q-.016-.218-.035-.449T5.2,2.383L4.989,0H.457L.4.469Z" fill="#F6891A" fill-rule="evenodd"/>
    </g>
  </g>
</svg>
