<svg xmlns="http://www.w3.org/2000/svg" width="19.109" height="17.37" viewBox="0 0 19.109 17.37">
  <path id="Path_286" data-name="Path 286" d="M5.083.078A5.4,5.4,0,0,0,3.337.566a4.726,4.726,0,0,0-.743.447,5.011,5.011,0,0,0-.662.584q-.173.182-.328.378t-.286.4q-.132.2-.244.418t-.2.433q-.09.22-.16.446T.6,4.129a5.187,5.187,0,0,0-.108.933A5.242,5.242,0,0,0,.549,6q.037.235.094.466t.137.46q.079.229.179.45t.222.438q.122.217.264.423t.307.406L1.8,8.7l.092.1.131.142.167.18.2.215.231.247.126.135.133.142.284.3.306.326.325.346.169.18.173.183.176.187.179.19.182.193.184.2.186.2.188.2.379.4.381.4.756.8.37.391.361.381.348.368.333.352.16.169.155.164.15.158.145.152.271.285.245.257.216.226.184.191.149.154.111.114q.093.095.1.095a1.126,1.126,0,0,0,.1-.1l.115-.117.153-.159.189-.2.222-.233.252-.265.279-.294L11.5,15.9l.154-.163.16-.168.165-.174.342-.362.177-.187.045-.047.023-.024.006-.006,0,0v0h0l.011-.012.011-.012.006-.006.006-.006.023-.024,0,0,0,0,.006-.006.011-.012.011-.012.006-.006.006-.006.37-.392.379-.4.774-.822.389-.414.387-.412.382-.406.188-.2.185-.2.362-.386.348-.371.168-.179.082-.088,0,0,0,0,.005-.005.01-.011.02-.022.02-.022,0-.005,0,0,0,0,0,0,0,0h0l0,0,.158-.169.153-.163.147-.157.141-.151.134-.144.127-.137.12-.129.112-.121.2-.217.166-.18.128-.141.087-.1q.033-.038.043-.052.13-.172.245-.352t.215-.364q.1-.184.184-.375t.153-.384a5.337,5.337,0,0,0,.214-.788,5.252,5.252,0,0,0,.056-1.609,5.183,5.183,0,0,0-.158-.793q-.055-.2-.126-.387t-.157-.379q-.087-.188-.189-.369t-.22-.357q-.138-.2-.295-.394t-.331-.362a5.077,5.077,0,0,0-.76-.62A5.24,5.24,0,0,0,16.447.44q-.232-.1-.475-.174t-.5-.131l-.1-.019L15.265.1,15.14.086,15.007.075Q14.87.065,14.718.06t-.3-.005q-.154,0-.3,0t-.289.014l-.134.011L13.564.1l-.113.016-.1.018q-.214.046-.412.1t-.386.125a4.842,4.842,0,0,0-.712.326,5.064,5.064,0,0,0-.66.444q-.16.126-.321.272t-.321.309l-.5.511-.5-.511q-.135-.14-.263-.261t-.255-.23a4.9,4.9,0,0,0-.5-.379Q8.394.755,8.264.683T8,.547Q7.864.485,7.72.428t-.3-.105Q7.3.281,7.156.245T6.868.179q-.147-.03-.3-.053T6.259.087Q5.946.054,5.647.052,5.5.05,5.356.057T5.083.078Z" transform="translate(-0.487 -0.051)" fill-rule="evenodd"/>
</svg>
