<?xml version="1.0" encoding="utf-8"?>
<!-- Svg Vector Icons : http://www.onlinewebfonts.com/icon -->
<!DOCTYPE svg PUBLIC "-//W3C//DTD SVG 1.1//EN" "http://www.w3.org/Graphics/SVG/1.1/DTD/svg11.dtd">
<svg version="1.1" xmlns="http://www.w3.org/2000/svg" xmlns:xlink="http://www.w3.org/1999/xlink" x="0px" y="0px" viewBox="0 0 1000 1000" enable-background="new 0 0 1000 1000" xml:space="preserve">
<metadata> Svg Vector Icons : http://www.onlinewebfonts.com/icon </metadata>
<g><g transform="translate(0.000000,512.000000) scale(0.100000,-0.100000)"><path d="M4527.4,5005.3C3577.5,4907.2,2668,4534.1,1921.9,3938c-376.9-300-813.4-792.2-1086.4-1228.7c-134.6-213.4-350-649.9-440.3-896.1c-525-1421-340.4-3078.6,480.7-4340c273-419.2,684.6-876.8,1046.1-1165.3c1534.5-1221,3601.6-1430.7,5322.6-540.3c269.2,140.4,594.2,351.9,830.7,540.3c209.6,167.3,571.1,528.8,738.4,738.4C10034.6-1424.9,10244.2,648,9352,2369c-240.4,465.3-511.5,834.6-892.2,1215.3c-401.9,403.8-811.5,696.1-1317.2,942.2c-461.5,225-898,363.4-1403.7,442.3C5450.4,5014.9,4804.3,5034.1,4527.4,5005.3z M5344.6,4603.4C6444.5,4507.2,7406,4063,8171.3,3295.8c1532.6-1530.6,1755.6-3915,536.5-5701.4c-407.7-598-936.5-1074.9-1569.1-1417.2c-844.1-459.5-1801.7-636.5-2745.9-505.7c-982.6,134.6-1874.8,580.7-2576.7,1286.4C1108.5-2330.6,672-1438.4,535.5-415.4c-30.8,228.8-30.8,859.5,0,1076.8c146.1,1048,573,1917.1,1290.3,2634.4c234.6,234.6,548,486.5,813.4,649.9C3433.3,4439.9,4431.3,4682.2,5344.6,4603.4z"/><path d="M4275.5,4093.8c-490.3-90.4-988.4-284.6-1436.4-563.4c-363.4-223.1-461.5-400-348-619.2c13.5-26.9,498-521.1,1078.8-1099.9C4523.6,857.6,4629.3,757.6,4685.1,757.6c46.1,0,71.1,13.5,96.1,51.9c32.7,48.1,34.6,151.9,40.4,1496c3.8,1013.4-1.9,1467.2-15.4,1528.7c-28.8,115.4-101.9,207.7-200,251.9C4515.9,4126.5,4465.9,4128.4,4275.5,4093.8z"/><path d="M5390.8,4086.1c-94.2-42.3-169.2-134.6-198.1-242.3c-13.5-51.9-21.2-532.6-21.2-1509.5c0-1324.9,1.9-1438.3,34.6-1499.9c26.9-53.8,46.2-69.2,98.1-73.1c63.4-5.8,101.9,28.8,1130.7,1057.6c1009.5,1007.6,1065.3,1069.1,1094.1,1163.4c59.6,203.8-32.7,340.3-371.1,548c-457.6,284.6-951.8,476.9-1451.8,563.4C5504.2,4130.3,5486.9,4130.3,5390.8,4086.1z"/><path d="M1931.5,2651.6c-98.1-34.6-209.6-157.7-344.2-375c-290.4-467.3-496.1-1013.4-569.2-1501.8C995,623,997,605.7,1031.6,523c48.1-103.8,138.4-176.9,255.7-207.7c61.5-13.5,515.3-19.2,1528.7-15.4c1344.1,5.8,1447.9,7.7,1496,40.4c38.5,25,51.9,50,51.9,96.1c0,55.8-100,161.5-1051.8,1115.3C2731.4,2132.4,2237.2,2617,2210.3,2630.5C2129.5,2672.8,2014.2,2682.4,1931.5,2651.6z"/><path d="M7873.3,2663.2c-30.8-7.7-75-25-96.1-36.5c-21.1-11.5-511.5-494.2-1090.3-1074.9C5733.1,598,5633.1,492.2,5633.1,436.4c0-46.1,13.5-71.1,51.9-96.1c48.1-32.7,151.9-34.6,1486.4-40.4c1024.9-3.8,1461.4,0,1534.5,15.4c128.8,28.8,238.4,126.9,275,246.1c21.2,73.1,19.2,111.5-26.9,344.2c-71.2,351.9-184.6,686.5-342.3,1003.8c-130.8,261.5-303.8,540.3-400,642.2C8121.3,2649.7,7990.5,2692,7873.3,2663.2z"/><path d="M1268.1-73.1C1166.2-102,1075.8-180.8,1031.6-277c-34.6-82.7-36.5-100-13.5-251.9c73.1-490.3,278.8-1034.5,573-1507.6c207.7-338.4,344.2-430.7,548-371.1c94.2,28.8,155.8,84.6,1163.4,1094.1C4331.3-284.7,4365.9-246.2,4360.1-182.7c-3.8,51.9-19.2,71.1-73.1,98.1C4225.5-52,4114-50,2777.6-52C1885.3-52,1310.4-61.6,1268.1-73.1z"/><path d="M5710-84.7c-53.8-26.9-69.2-46.2-73.1-98.1c-5.8-63.5,28.8-101.9,1048-1121.1c578.8-580.7,1074.9-1067.2,1101.8-1080.7c130.8-67.3,282.7-50,392.3,46.2c148,130.7,459.6,676.8,598,1046c86.5,236.5,169.2,548,201.9,763.4c23.1,151.9,21.1,169.2-13.5,251.9c-46.1,100-134.6,175-246.1,205.8C8667.4-57.7,8186.7-50,7209.9-50C5885-50,5771.5-52,5710-84.7z"/><path d="M3569.8-1563.4c-580.7-580.7-1065.3-1074.9-1078.8-1101.8c-67.3-130.8-50-282.7,46.1-392.3c150-169.2,763.4-505.7,1174.9-642.3c132.7-44.2,359.6-103.8,503.8-132.7c232.7-46.1,271.1-48.1,344.2-26.9c119.2,36.5,217.3,146.1,246.1,275c15.4,73.1,19.2,509.6,15.4,1534.5c-5.8,1334.5-7.7,1438.3-40.4,1486.4c-25,38.5-50,51.9-96.1,51.9C4629.3-511.5,4523.6-611.6,3569.8-1563.4z"/><path d="M5217.7-551.9c-34.6-38.5-36.5-96.2-42.3-1496c-3.9-1021.1,1.9-1478.7,15.4-1540.2c30.8-117.3,103.8-207.7,207.7-255.8c82.7-34.6,100-36.5,251.9-13.4c215.4,32.7,526.9,115.4,763.4,201.9c369.2,138.4,915.3,450,1046.1,598c96.1,109.6,113.5,261.5,46.2,392.3c-13.5,26.9-498,521.1-1078.8,1101.8C5492.7-630.8,5365.8-511.5,5313.9-511.5C5277.3-511.5,5240.8-526.9,5217.7-551.9z"/></g></g>
</svg>