<svg xmlns="http://www.w3.org/2000/svg" width="80.897" height="80.88" viewBox="0 0 80.897 80.88">
  <g id="_6b13fba259d636dd69a9b318f536006f" data-name="6b13fba259d636dd69a9b318f536006f" transform="translate(-10.007 -10.11)">
    <g id="Group_1" data-name="Group 1" transform="translate(10.007 10.111)">
      <path id="Path_608" data-name="Path 608" d="M46.554-501.777a41.373,41.373,0,0,0-21.508,8.81,44.24,44.24,0,0,0-8.968,10.143,50.672,50.672,0,0,0-3.635,7.4A40.8,40.8,0,0,0,16.412-439.6a44.274,44.274,0,0,0,8.635,9.619,40.439,40.439,0,0,0,43.937,4.46,46.62,46.62,0,0,0,6.857-4.46,50.255,50.255,0,0,0,6.1-6.1,40.4,40.4,0,0,0,4.444-43.938,38.583,38.583,0,0,0-7.365-10.032,38.546,38.546,0,0,0-10.873-7.778,39.284,39.284,0,0,0-11.587-3.651A54.353,54.353,0,0,0,46.554-501.777ZM53.3-498.46a36.772,36.772,0,0,1,23.334,10.794A36.929,36.929,0,0,1,81.063-440.6,36.653,36.653,0,0,1,68.11-428.9a36.758,36.758,0,0,1-22.667,4.174,36.85,36.85,0,0,1-21.27-10.619A37.162,37.162,0,0,1,13.6-457.03a51.886,51.886,0,0,1,0-8.889,36.975,36.975,0,0,1,10.651-21.747,39.958,39.958,0,0,1,6.714-5.365A37.369,37.369,0,0,1,53.3-498.46Z" transform="translate(-10.007 501.889)" fill="#F6891A"/>
      <path id="Path_609" data-name="Path 609" d="M259.741-411.618a34.612,34.612,0,0,0-11.857,4.651c-3,1.842-3.81,3.3-2.873,5.111.111.222,4.111,4.3,8.905,9.079,7.873,7.873,8.745,8.7,9.206,8.7a.817.817,0,0,0,.793-.429c.27-.4.286-1.254.333-12.349.031-8.366-.016-12.112-.127-12.619a3.039,3.039,0,0,0-1.651-2.079C261.726-411.888,261.313-411.9,259.741-411.618Z" transform="translate(-225.274 419.254)" fill="#F6891A"/>
      <path id="Path_610" data-name="Path 610" d="M518.96-411.745a3.072,3.072,0,0,0-1.635,2c-.112.428-.175,4.4-.175,12.461,0,10.937.016,11.873.286,12.381.222.444.381.571.81.6.523.048.841-.238,9.334-8.73,8.333-8.318,8.794-8.825,9.031-9.6.492-1.682-.27-2.809-3.063-4.524a33.664,33.664,0,0,0-11.984-4.651C519.9-412.11,519.753-412.11,518.96-411.745Z" transform="translate(-475.286 419.445)" fill="#F6891A"/>
      <path id="Path_611" data-name="Path 611" d="M107.948-266.817c-.81.286-1.73,1.3-2.841,3.1a33.993,33.993,0,0,0-4.7,12.4c-.191,1.253-.174,1.4.111,2.079a3.132,3.132,0,0,0,2.111,1.714c.508.112,4.254.159,12.619.127,11.1-.048,11.952-.064,12.349-.333a.816.816,0,0,0,.428-.793c0-.461-.825-1.333-8.682-9.207-4.794-4.794-8.873-8.794-9.1-8.905A3.058,3.058,0,0,0,107.948-266.817Z" transform="translate(-92.83 286.359)" fill="#F6891A"/>
      <path id="Path_612" data-name="Path 612" d="M581.8-267.135a4.164,4.164,0,0,0-.793.3c-.174.1-4.222,4.08-9,8.873-7.874,7.873-8.7,8.747-8.7,9.207a.817.817,0,0,0,.428.793c.4.27,1.254.286,12.27.333,8.46.031,12.063,0,12.667-.127a3.107,3.107,0,0,0,2.27-2.032c.175-.6.158-.92-.222-2.841a33.405,33.405,0,0,0-2.826-8.286,28.061,28.061,0,0,0-3.3-5.3A2.908,2.908,0,0,0,581.8-267.135Z" transform="translate(-517.636 286.581)" fill="#F6891A"/>
      <path id="Path_613" data-name="Path 613" d="M102.476,5.324a3.164,3.164,0,0,0-1.952,1.683c-.286.683-.3.825-.111,2.079a33.938,33.938,0,0,0,4.73,12.445c1.715,2.793,2.841,3.555,4.524,3.063.778-.238,1.286-.7,9.6-9.032,8.493-8.493,8.778-8.81,8.73-9.335-.031-.428-.158-.587-.6-.81-.508-.269-1.428-.286-12.46-.269C107.571,5.15,102.825,5.229,102.476,5.324Z" transform="translate(-92.834 36.709)" fill="#F6891A"/>
      <path id="Path_614" data-name="Path 614" d="M564.252,5.286c-.444.222-.571.381-.6.81-.048.524.238.841,8.651,9.254,4.778,4.794,8.873,8.81,9.1,8.921a2.86,2.86,0,0,0,3.238-.381c1.222-1.079,3.794-5.587,4.936-8.635a36.857,36.857,0,0,0,1.667-6.3c.191-1.254.174-1.4-.112-2.079a3.126,3.126,0,0,0-2.032-1.7c-.428-.112-4.4-.176-12.46-.176C565.7,5,564.76,5.017,564.252,5.286Z" transform="translate(-517.943 36.843)" fill="#F6891A"/>
      <path id="Path_615" data-name="Path 615" d="M254.287,59.842c-4.794,4.794-8.794,8.873-8.905,9.1a2.861,2.861,0,0,0,.381,3.238c1.238,1.4,6.3,4.174,9.7,5.3a42.155,42.155,0,0,0,4.159,1.1c1.921.381,2.238.4,2.841.222a3.1,3.1,0,0,0,2.031-2.27c.127-.6.159-4.207.127-12.667-.048-11.016-.064-11.873-.334-12.27a.815.815,0,0,0-.793-.428C263.033,51.159,262.161,51.985,254.287,59.842Z" transform="translate(-225.645 -5.507)" fill="#F6891A"/>
      <path id="Path_616" data-name="Path 616" d="M517.78,51.483c-.286.318-.3.794-.349,12.349-.032,8.429.016,12.206.127,12.714a3.131,3.131,0,0,0,1.715,2.112c.683.286.825.3,2.079.111a36.834,36.834,0,0,0,6.3-1.667c3.048-1.142,7.556-3.715,8.635-4.936a2.861,2.861,0,0,0,.381-3.238c-.111-.222-4.111-4.3-8.905-9.1-7.715-7.7-8.762-8.682-9.191-8.682A1.1,1.1,0,0,0,517.78,51.483Z" transform="translate(-475.535 -5.498)" fill="#F6891A"/>
    </g>
  </g>
</svg>
