<?xml version="1.0" encoding="utf-8"?>
<!-- Svg Vector Icons : http://www.onlinewebfonts.com/icon -->
<!DOCTYPE svg PUBLIC "-//W3C//DTD SVG 1.1//EN" "http://www.w3.org/Graphics/SVG/1.1/DTD/svg11.dtd">
<svg version="1.1" xmlns="http://www.w3.org/2000/svg" xmlns:xlink="http://www.w3.org/1999/xlink" x="0px" y="0px" viewBox="0 0 1000 1000" enable-background="new 0 0 1000 1000" xml:space="preserve">
<metadata> Svg Vector Icons : http://www.onlinewebfonts.com/icon </metadata>
<g><path d="M10,184.1C10,87.9,88.1,10,184.1,10h631.8C912.1,10,990,88.1,990,184.1v631.8c0,96.1-78.1,174.1-174.1,174.1H184.1C87.9,990,10,911.9,10,815.9V184.1z M769.6,554.4c25.5,0,46.2-24.2,46.2-54.4c0-30.1-24.2-54.4-46.2-54.4H252.2c-25.5,0-46.2,24.2-46.2,54.4c0,30.1,24.2,54.4,46.2,54.4H769.6z"/></g>
</svg>