<?xml version="1.0" encoding="utf-8"?>
<!-- Svg Vector Icons : http://www.onlinewebfonts.com/icon -->
<!DOCTYPE svg PUBLIC "-//W3C//DTD SVG 1.1//EN" "http://www.w3.org/Graphics/SVG/1.1/DTD/svg11.dtd">
<svg version="1.1" xmlns="http://www.w3.org/2000/svg" xmlns:xlink="http://www.w3.org/1999/xlink" x="0px" y="0px" viewBox="0 0 1000 1000" enable-background="new 0 0 1000 1000" xml:space="preserve">
<metadata> Svg Vector Icons : http://www.onlinewebfonts.com/icon </metadata>
<g><path d="M500,990C229.4,990,10,770.6,10,500S229.4,10,500,10s490,219.4,490,490S770.6,990,500,990z M500,71.3c-236.8,0-428.8,192-428.8,428.8s192,428.8,428.8,428.8c236.8,0,428.8-192,428.8-428.8S736.8,71.3,500,71.3z M699.7,529.9H300.3c-16.5,0-29.9-13.4-29.9-29.9s13.4-29.9,29.9-29.9h399.3c16.5,0,29.9,13.4,29.9,29.9S716.2,529.9,699.7,529.9z"/></g>
</svg>