<svg xmlns="http://www.w3.org/2000/svg" width="14.091" height="19.685" viewBox="0 0 14.091 19.685">
  <path id="Path_288" data-name="Path 288" d="M15.671,17.914v0L13.1,13.566a.665.665,0,0,0-.427-.322.675.675,0,0,0-.527.077l-1.533.908.127.211a.939.939,0,0,1-1.027-.258,3.687,3.687,0,0,1-.287-.277q-.143-.152-.311-.356-.153-.186-.342-.433l-.185-.244-.195-.262L6.2,8.91q-.089-.2-.156-.355-.079-.188-.137-.35-.065-.181-.107-.339a2.664,2.664,0,0,1-.067-.323,1.308,1.308,0,0,1,.03-.572.821.821,0,0,1,.32-.433l.07.121,1.533-.906v0a.667.667,0,0,0,.325-.438.684.684,0,0,0-.08-.522v0L5.361.442A.692.692,0,0,0,4.407.2L2.874,1.1l.094.157a1.94,1.94,0,0,0-.172.161,2.752,2.752,0,0,0-.191.224,3.442,3.442,0,0,0-.2.289,4.054,4.054,0,0,0-.195.356q-.1.2-.18.425-.088.239-.154.5-.071.276-.117.57-.049.313-.069.645-.021.352-.01.723.012.392.06.8.051.432.142.884.1.474.234.968.145.516.338,1.053.2.56.453,1.141.262.6.579,1.231.329.65.716,1.323.4.7.815,1.334.4.613.806,1.165.392.532.793,1.008.384.457.775.861.374.387.754.724.362.322.728.6.348.262.7.482.331.208.663.377.313.159.624.282.293.116.581.2a5.442,5.442,0,0,0,.534.125,4.672,4.672,0,0,0,.482.062,3.967,3.967,0,0,0,.426.009,3.19,3.19,0,0,0,.366-.033,2.4,2.4,0,0,0,.3-.064,1.583,1.583,0,0,0,.233-.085l.106.185,1.533-.9v0a.673.673,0,0,0,.325-.439.69.69,0,0,0-.078-.523Z" transform="translate(-1.678 -0.097)" fill-rule="evenodd"/>
</svg>
