<?xml version="1.0" encoding="utf-8"?>
<!-- Svg Vector Icons : http://www.onlinewebfonts.com/icon -->
<!DOCTYPE svg PUBLIC "-//W3C//DTD SVG 1.1//EN" "http://www.w3.org/Graphics/SVG/1.1/DTD/svg11.dtd">
<svg version="1.1" xmlns="http://www.w3.org/2000/svg" xmlns:xlink="http://www.w3.org/1999/xlink" x="0px" y="0px" viewBox="0 0 1000 1000" enable-background="new 0 0 1000 1000" xml:space="preserve">
<metadata> Svg Vector Icons : http://www.onlinewebfonts.com/icon </metadata>
<g><path d="M554.4,565.3h195.8c30.4,0,54.7-24.4,54.7-54.4c0-30.3-24.5-54.4-54.7-54.4H554.4V260.7c0-30.4-24.4-54.7-54.4-54.7c-30.3,0-54.4,24.5-54.4,54.7v195.8H249.8c-30.4,0-54.7,24.4-54.7,54.4c0,30.3,24.5,54.4,54.7,54.4h195.8v195.8c0,30.4,24.4,54.6,54.4,54.6c30.3,0,54.4-24.5,54.4-54.6V565.3z M10,184.1C10,87.9,88.1,10,184.1,10h631.8C912.1,10,990,88.1,990,184.1v631.8c0,96.1-78.1,174.1-174.1,174.1H184.1C87.9,990,10,911.9,10,815.9V184.1z"/></g>
</svg>