<svg id="_52IV0brpCLf-cM3v1fHL5TL" data-name="52IV0brpCLf-cM3v1fHL5TL" xmlns="http://www.w3.org/2000/svg" width="20" height="18.635" viewBox="0 0 20 18.635">
  <path id="Path_290" data-name="Path 290" d="M20,17.463q0,.391-.037,1.172H.018q0-.1,0-.237,0-.156-.006-.339T0,17.714q0-.133,0-.251,0-.562.018-.69a2.7,2.7,0,0,1,1.2-1.575A7.39,7.39,0,0,1,3.3,14.21q.561-.165,1.143-.382t1.2-.495a5.071,5.071,0,0,0,1.812-1.221,1.233,1.233,0,0,0,.318-.708,7.5,7.5,0,0,0-.206-1.361,3.564,3.564,0,0,0-.2-.68q-.119-.281-.3-.614-.086-.156-.161-.309t-.129-.277A13.676,13.676,0,0,1,6.163,5.7a9.086,9.086,0,0,1-.112-1.4,4.666,4.666,0,0,1,1-3.131A3.651,3.651,0,0,1,9.994,0a3.654,3.654,0,0,1,2.945,1.174,4.674,4.674,0,0,1,1,3.131,9.021,9.021,0,0,1-.131,1.4,11.416,11.416,0,0,1-.6,2.46,6.436,6.436,0,0,1-.29.586q-.175.323-.3.614a3.337,3.337,0,0,0-.2.68,7.5,7.5,0,0,0-.206,1.361,1.117,1.117,0,0,0,.318.708,5.1,5.1,0,0,0,1.814,1.221,18.818,18.818,0,0,0,2.335.877,7.42,7.42,0,0,1,2.076.989,2.688,2.688,0,0,1,1.194,1.575,3.043,3.043,0,0,1,.045.69Z" fill-rule="evenodd"/>
</svg>
